<svg id="Calque_1" data-name="Calque 1" xmlns="http://www.w3.org/2000/svg" viewBox="0 0 841.89 595.28"><defs><style>.cls-1,.cls-2{fill:none;stroke-miterlimit:10;}.cls-1{stroke:#ac6118;stroke-width:12px;}.cls-2{stroke:#0c4264;stroke-width:3px;}.cls-3{fill:#0c4264;}.cls-4{fill:#fff;}.cls-5{fill:#ad6118;}</style></defs><circle class="cls-1" cx="420.94" cy="297.64" r="214.87" transform="translate(-87.17 384.83) rotate(-45)"/><circle class="cls-2" cx="420.95" cy="297.64" r="202.67"/><circle class="cls-3" cx="420.95" cy="297.64" r="193.27"/><path class="cls-4" d="M446.73,310.9c-.38,1-.07,1.46.9,1.46h.8v-6.8C447.78,307.61,447.19,309.41,446.73,310.9Zm9.15,57.72a18.09,18.09,0,0,1-5.21-5.15,14.53,14.53,0,0,1-2.24-8.47V319.61h-3.5a1.3,1.3,0,0,0-1.34.87c-.28.9-.74,2.39-1.39,4.47s-1.37,4.43-2.17,7-1.65,5.33-2.52,8.22-1.64,5.52-2.38,8l-2,6.42a29,29,0,0,0-1,3.54,9.42,9.42,0,0,0,3.91,10.76,15.56,15.56,0,0,0,4.81,2.17c1.7.47,3.13.84,4.25,1.12a1.92,1.92,0,0,1,1.33.83,2,2,0,0,1,.22,1.25,1.76,1.76,0,0,1-.69,1.05,2,2,0,0,1-1.33.43h11.2a1,1,0,0,1-.72-.21.89.89,0,0,1-.31-.53,1.34,1.34,0,0,1,.19-.62,1.24,1.24,0,0,1,.68-.44,22.55,22.55,0,0,0,2.95-1,14.17,14.17,0,0,0,2.7-1.49,2.91,2.91,0,0,0,.31-.24A19.46,19.46,0,0,1,455.88,368.62Zm11.44-143.08a2.4,2.4,0,0,0-1.67-.53H416.3c-2.33,0-3.85.9-4.59,2.7s-1.83,4.56-3.23,8.1-3,7.53-4.87,12.06-3.75,9.31-5.8,14.46l-6.14,15.41c-2.05,5.12-4,10.08-6,14.89s-3.66,9.09-5.18,12.84-2.8,6.89-3.76,9.34l-1.67,4.25c-.16.37-.37.52-.65.49a.87.87,0,0,1-.69-.62c-.21-.53-.8-2-1.79-4.53s-2.18-5.64-3.63-9.43-3.07-8.06-4.9-12.84-3.7-9.7-5.65-14.79S353.89,267.13,352,262s-3.75-9.92-5.46-14.36-3.26-8.37-4.59-11.88-2.36-6.17-3-8a4.28,4.28,0,0,0-4.37-2.7h-55a2.41,2.41,0,0,0-1.68.53,1.58,1.58,0,0,0-.62,1.12,1.65,1.65,0,0,0,.43,1.21,2.32,2.32,0,0,0,1.52.74,43.21,43.21,0,0,1,4.25,1,22.25,22.25,0,0,1,5.87,2.64,17.38,17.38,0,0,1,5.18,5.12,14.83,14.83,0,0,1,2.23,8.43V355a14.61,14.61,0,0,1-2.23,8.47,18.64,18.64,0,0,1-5.18,5.15,20.47,20.47,0,0,1-5.87,2.64c-1.95.46-3.35.77-4.25.93a2.85,2.85,0,0,0-1.52.77,1.53,1.53,0,0,0-.43,1.18,1.73,1.73,0,0,0,.62,1.12,2.41,2.41,0,0,0,1.68.49H321.7a2.4,2.4,0,0,0,1.67-.49,1.69,1.69,0,0,0,.62-1.12,1.53,1.53,0,0,0-.43-1.18,2.81,2.81,0,0,0-1.52-.77c-.9-.16-2.3-.47-4.25-.93a20.42,20.42,0,0,1-5.86-2.64,18.51,18.51,0,0,1-5.18-5.15,14.53,14.53,0,0,1-2.23-8.47V242.1c.06-.74.34-1.11.77-1.11s.78.31,1,.9c.07.31.62,1.73,1.68,4.34s2.36,6.05,4,10.33,3.54,9.21,5.71,14.79,4.43,11.51,6.85,17.77,4.9,12.66,7.45,19.27,5,13,7.41,19.2,4.71,12.09,6.85,17.64,4.07,10.39,5.71,14.58,2.95,7.48,3.91,10,1.49,3.81,1.55,4a1.78,1.78,0,0,0,1.64,1.12,2,2,0,0,0,1.71-1.12c.09-.16.62-1.4,1.58-3.69s2.23-5.43,3.79-9.34,3.38-8.43,5.42-13.55l6.52-16.38q3.48-8.65,7.1-17.8t7.1-17.87q3.45-8.7,6.58-16.47c2.08-5.18,3.91-9.74,5.46-13.74l3.81-9.58c1-2.42,1.52-3.79,1.68-4.1.37-.74.74-1,1.18-.83a1.06,1.06,0,0,1,.58,1.08V355a14.53,14.53,0,0,1-2.23,8.47,18.12,18.12,0,0,1-5.18,5.15,20.42,20.42,0,0,1-5.86,2.64c-1.92.46-3.35.77-4.25.93a2.71,2.71,0,0,0-1.49.77,1.56,1.56,0,0,0-.46,1.18,1.69,1.69,0,0,0,.62,1.12,2.4,2.4,0,0,0,1.67.49h9a2,2,0,0,1-1.4-.43,1.49,1.49,0,0,1-.56-1,2,2,0,0,1,.34-1.18,2.08,2.08,0,0,1,1.28-.84,52.84,52.84,0,0,0,5.7-1.89,24.53,24.53,0,0,0,5.18-2.85,21.91,21.91,0,0,0,4.38-4.19,23.45,23.45,0,0,0,3.28-5.8c.44-1.12,1.43-3.79,2.92-8s3.29-9.37,5.46-15.51,4.53-12.94,7.13-20.38,5.24-15,7.88-22.61c1.15-3.32,2.29-6.64,3.44-9.9V245.79a14.75,14.75,0,0,1,2.24-8.43,16.9,16.9,0,0,1,5.21-5.12,21.24,21.24,0,0,1,5.86-2.64,41.32,41.32,0,0,1,4.25-1,2.29,2.29,0,0,0,1.49-.74,1.53,1.53,0,0,0-.16-2.33Z"/><path class="cls-5" d="M564.65,374.08a2.1,2.1,0,0,1-.68,1.18,2.22,2.22,0,0,1-1.55.49H538.5a1.19,1.19,0,0,0,.84-.24,1,1,0,0,0,.34-.62.89.89,0,0,0-.12-.62,1,1,0,0,0-.65-.41,13.56,13.56,0,0,1-3.23-1.05,12.66,12.66,0,0,1-3-2.05,17.44,17.44,0,0,1-2.6-3.13,21.62,21.62,0,0,1-2.05-4.34c-.31-.84-.87-2.46-1.64-4.84s-1.71-5.21-2.79-8.5-2.33-6.89-3.63-10.86-2.64-7.91-4-11.88-2.64-7.84-3.88-11.6-2.33-7.07-3.32-10-1.8-5.27-2.39-7.1-.9-2.76-1-2.88a1.74,1.74,0,0,0-.71-.93,1.69,1.69,0,0,0-1.43.21,27.72,27.72,0,0,1-3.19,1.21c-1.15.38-2.33.69-3.51,1s-2.33.62-3.44.86-2.11.5-3,.66a2,2,0,0,0-1.08.46,2.31,2.31,0,0,0-.59,1c0,.1-.19.59-.53,1.52-.16-.46-.31-1-.5-1.49q-1.58-4.61-3.47-10.42c-1.24-3.87-2.54-7.81-3.91-11.78s-2.64-7.88-3.91-11.73-2.39-7.26-3.38-10.26-1.83-5.46-2.48-7.32-.93-2.83-.93-2.92a.79.79,0,0,0-1-.65,1.05,1.05,0,0,0-.93.77c-.1.16-.53,1.52-1.37,4.07s-1.86,5.86-3.1,9.83-2.7,8.41-4.25,13.31-3.1,9.67-4.65,14.45-2.92,9.21-4.22,13.4c-.53,1.7-1,3.29-1.49,4.71-.65,2.05-1.24,3.85-1.7,5.34-.38,1-.07,1.46.9,1.46h36.63q-1.12,3.3-2.52,7.25H444.93a1.3,1.3,0,0,0-1.34.87c-.28.9-.74,2.39-1.39,4.47s-1.37,4.43-2.17,7-1.65,5.33-2.52,8.22-1.64,5.52-2.38,8l-2,6.42a29,29,0,0,0-1,3.54,9.42,9.42,0,0,0,3.91,10.76,15.56,15.56,0,0,0,4.81,2.17c1.7.47,3.13.84,4.25,1.12a1.92,1.92,0,0,1,1.33.83,2,2,0,0,1,.22,1.25,1.76,1.76,0,0,1-.69,1.05,2,2,0,0,1-1.33.43H403.4a2,2,0,0,1-1.4-.43,1.49,1.49,0,0,1-.56-1,2,2,0,0,1,.34-1.18,2.08,2.08,0,0,1,1.28-.84,52.84,52.84,0,0,0,5.7-1.89,24.53,24.53,0,0,0,5.18-2.85,21.91,21.91,0,0,0,4.38-4.19,23.45,23.45,0,0,0,3.28-5.8c.44-1.12,1.43-3.79,2.92-8s3.29-9.37,5.46-15.51,4.53-12.94,7.13-20.38,5.24-15,7.88-22.61c1.15-3.32,2.29-6.64,3.44-9.9l4.31-12.43q3.83-10.89,6.7-19.39t4.75-13.74q1.86-5.2,1.95-5.58a5.73,5.73,0,0,1,1.12-1.89,3.93,3.93,0,0,1,2.14-.9c1.64-.28,3.54-.69,5.68-1.21s4.37-1.09,6.66-1.68,4.5-1.24,6.73-2,4.29-1.49,6.15-2.3c1.27-.59,2.2-.74,2.76-.43a3.27,3.27,0,0,1,1.39,1.77c.06.21.68,2.07,1.83,5.58s2.67,8.06,4.59,13.68,4,12,6.42,19.26,4.84,14.67,7.42,22.33,5.11,15.29,7.66,22.89,4.84,14.55,7,20.88,3.9,11.78,5.39,16.37,2.55,7.69,3.14,9.31a38.49,38.49,0,0,0,4,8.34,31.39,31.39,0,0,0,5,6,23.1,23.1,0,0,0,12,6,1.76,1.76,0,0,1,1.21.78A1.66,1.66,0,0,1,564.65,374.08Z"/><path class="cls-4" d="M539.56,374.27a1,1,0,0,0-.65-.41,13.56,13.56,0,0,1-3.23-1.05,12.66,12.66,0,0,1-3-2.05,17.44,17.44,0,0,1-2.6-3.13,21.62,21.62,0,0,1-2.05-4.34c-.31-.84-.87-2.46-1.64-4.84s-1.71-5.21-2.79-8.5-2.33-6.89-3.63-10.86-2.64-7.91-4-11.88-2.64-7.84-3.88-11.6-2.33-7.07-3.32-10-1.8-5.27-2.39-7.1-.9-2.76-1-2.88a1.74,1.74,0,0,0-.71-.93,1.69,1.69,0,0,0-1.43.21,27.72,27.72,0,0,1-3.19,1.21c-1.15.38-2.33.69-3.51,1s-2.33.62-3.44.86-2.11.5-3,.66a2,2,0,0,0-1.08.46,2.31,2.31,0,0,0-.59,1c0,.1-.19.59-.53,1.52-.13.38-.28.84-.47,1.37-.65,1.83-1.49,4.22-2.48,7.13-.25.72-.49,1.49-.77,2.27q-1.12,3.3-2.52,7.25l-.18.56c-1.34,3.76-2.67,7.63-4,11.6s-2.73,7.88-4.1,11.76-2.6,7.38-3.72,10.57l-2.82,8.07c-.78,2.17-1.31,3.57-1.52,4.15a12.31,12.31,0,0,1-1.71,3,11.32,11.32,0,0,1-1.92,1.93h0a2.91,2.91,0,0,1-.31.24,14.17,14.17,0,0,1-2.7,1.49,22.55,22.55,0,0,1-2.95,1,1.24,1.24,0,0,0-.68.44,1.34,1.34,0,0,0-.19.62.89.89,0,0,0,.31.53,1,1,0,0,0,.72.21h21.46a1.15,1.15,0,0,0,.71-.21.94.94,0,0,0,.35-.56.84.84,0,0,0-.13-.62.93.93,0,0,0-.68-.44c-.59-.15-1.33-.37-2.2-.59a8.43,8.43,0,0,1-2.52-1.14,4.83,4.83,0,0,1-2-5.59,11.91,11.91,0,0,1,.49-1.83c.28-1,.62-2,1-3.35s.8-2.63,1.27-4.12.87-2.92,1.3-4.28.78-2.58,1.12-3.66.56-1.83.71-2.3a.71.71,0,0,1,.71-.46h25a.66.66,0,0,1,.41.12c.28.9.56,1.77.84,2.58.62,1.95,1.11,3.38,1.48,4.37,1.21,3.57,1.31,6.51.34,8.81A13.48,13.48,0,0,1,501.5,368a17.31,17.31,0,0,1-5.49,3c-1.89.59-3.19,1-3.94,1.21a2.65,2.65,0,0,0-1.52.9,1.33,1.33,0,0,0-.21,1.18,2.21,2.21,0,0,0,.65,1.05,1.83,1.83,0,0,0,1.3.43H538.5a1.19,1.19,0,0,0,.84-.24,1,1,0,0,0,.34-.62A.89.89,0,0,0,539.56,374.27ZM501,342.81H478.89c-.5,0-.65-.24-.46-.74.43-1.33,1-3.07,1.64-5.21s1.43-4.5,2.2-7,1.61-5,2.42-7.51c.31-1,.59-1.89.87-2.76.5-1.48.93-2.85,1.33-4.15.38-1.15.69-2.17,1-3.1.21-.75.43-1.4.62-2,.43-1.33.65-2.05.71-2.11a.56.56,0,0,1,.5-.43.33.33,0,0,1,.4.25.23.23,0,0,1,.06.12s.19.53.5,1.49.77,2.23,1.3,3.81,1.09,3.35,1.77,5.34,1.33,4,2,6.08,1.37,4.12,2,6.11,1.27,3.84,1.8,5.43,1,2.94,1.33,4c.25.77.41,1.27.47,1.52a1.18,1.18,0,0,1,.06.18.42.42,0,0,1,0,.19.23.23,0,0,1,0,.12C501.5,342.69,501.32,342.81,501,342.81Z"/></svg>